<svg width="24" height="24" viewBox="0 0 24 24" fill="none" xmlns="http://www.w3.org/2000/svg">
<g id="Bin">
<g id="Group">
<path id="Vector" d="M21.8824 4.44103C21.8824 3.92325 21.4627 3.50353 20.9449 3.50353H17.361C17.2337 1.5502 15.604 0 13.619 0H10.3825C8.39753 0 6.76788 1.5502 6.64052 3.50353H3.05664C2.53886 3.50353 2.11914 3.92325 2.11914 4.44103C2.11914 4.95506 2.53281 5.37244 3.04539 5.37848L3.81395 20.4411C3.91581 22.4367 5.56084 24 7.55908 24H16.4425C18.4408 24 20.0858 22.4367 20.1876 20.4415L20.1881 20.4308C20.2148 19.9138 19.8172 19.473 19.3001 19.4464C18.7829 19.42 18.3422 19.8174 18.3156 20.3344L18.3151 20.3456C18.2641 21.3434 17.4416 22.125 16.4425 22.125H7.55908C6.55998 22.125 5.73747 21.3434 5.68652 20.3455L4.92287 5.37853H19.0787L18.5547 15.6473C18.5283 16.1644 18.9261 16.605 19.4432 16.6314C19.9603 16.6573 20.4009 16.26 20.4273 15.7429L20.9561 5.37844C21.4687 5.37244 21.8824 4.95506 21.8824 4.44103ZM8.52363 3.50353C8.6447 2.58577 9.4322 1.875 10.3825 1.875H13.619C14.5693 1.875 15.3568 2.58577 15.4779 3.50353H8.52363Z" fill="#BCBCBC"/>
<path id="Vector_2" d="M14.8974 10.046L14.5169 17.5041C14.4905 18.0211 14.8883 18.4617 15.4053 18.4881C15.4216 18.489 15.4378 18.4893 15.4539 18.4893C15.9497 18.4893 16.3638 18.1004 16.3894 17.5996L16.7699 10.1415C16.7963 9.62442 16.3985 9.18384 15.8814 9.15745C15.3638 9.13148 14.9238 9.52889 14.8974 10.046Z" fill="#BCBCBC"/>
<path id="Vector_3" d="M8.12018 9.15748C7.6031 9.18387 7.20528 9.62445 7.23171 10.1415L7.61225 17.5996C7.63779 18.1005 8.05189 18.4894 8.54773 18.4894C8.56381 18.4894 8.58003 18.4889 8.59629 18.4881C9.11337 18.4617 9.5112 18.0212 9.48476 17.5041L9.10423 10.046C9.07789 9.52897 8.63721 9.13119 8.12018 9.15748Z" fill="#BCBCBC"/>
<path id="Vector_4" d="M11.0625 10.0938V17.5518C11.0625 18.0696 11.4822 18.4893 12 18.4893C12.5178 18.4893 12.9375 18.0696 12.9375 17.5518V10.0938C12.9375 9.57597 12.5178 9.15625 12 9.15625C11.4822 9.15625 11.0625 9.57597 11.0625 10.0938Z" fill="#BCBCBC"/>
</g>
</g>
</svg>
