<svg width="16" height="16" viewBox="0 0 16 16" fill="none" xmlns="http://www.w3.org/2000/svg">
<g id="Calendar" clip-path="url(#clip0_457_1178)">
<g id="Group">
<g id="Group_2">
<path id="Vector" d="M14.125 1.25H13.375V0H12.125V1.25H3.875V0H2.625V1.25H1.875C0.841125 1.25 0 2.09113 0 3.125V14.125C0 15.1589 0.841125 16 1.875 16H10.7658L16 10.5645V3.125C16 2.09113 15.1589 1.25 14.125 1.25ZM11.125 13.8249V11.5625C11.125 11.2179 11.4054 10.9375 11.75 10.9375H13.9055L11.125 13.8249ZM14.75 9.6875H11.75C10.7161 9.6875 9.875 10.5286 9.875 11.5625V14.75H1.875C1.53038 14.75 1.25 14.4696 1.25 14.125V5.875H14.75V9.6875ZM14.75 4.625H1.25V3.125C1.25 2.78038 1.53038 2.5 1.875 2.5H2.625V3.75H3.875V2.5H12.125V3.75H13.375V2.5H14.125C14.4696 2.5 14.75 2.78038 14.75 3.125V4.625Z" fill="#9BA0A4"/>
</g>
</g>
</g>
<defs>
<clipPath id="clip0_457_1178">
<rect width="16" height="16" fill="white"/>
</clipPath>
</defs>
</svg>
