<svg width="24" height="24" viewBox="0 0 24 24" fill="none" xmlns="http://www.w3.org/2000/svg">
<g clip-path="url(#clip0_457_1155)">
<path d="M12.0469 0C5.45578 0 0 5.36203 0 11.9531C0 18.5442 5.45578 24 12.0469 24C18.638 24 24 18.5442 24 11.9531C24 5.36203 18.638 0 12.0469 0ZM17.9634 15.8808C18.5119 16.4292 18.5119 17.3213 17.9634 17.8702C17.4192 18.4139 16.5272 18.4228 15.9741 17.8702L12.0469 13.9416L8.02547 17.8706C7.47703 18.4191 6.585 18.4191 6.03609 17.8706C5.48766 17.3222 5.48766 16.4302 6.03609 15.8812L9.96422 11.9531L6.03609 8.025C5.48766 7.47609 5.48766 6.58406 6.03609 6.03562C6.585 5.48719 7.47703 5.48719 8.02547 6.03562L12.0469 9.96469L15.9741 6.03562C16.5216 5.48812 17.4136 5.48625 17.9634 6.03562C18.5119 6.58406 18.5119 7.47609 17.9634 8.025L14.0353 11.9531L17.9634 15.8808Z" fill="#C4F8B6"/>
</g>
<defs>
<clipPath id="clip0_457_1155">
<rect width="24" height="24" fill="white"/>
</clipPath>
</defs>
</svg>
