<svg width="16" height="16" viewBox="0 0 16 16" fill="none" xmlns="http://www.w3.org/2000/svg">
<g id="Clock" clip-path="url(#clip0_457_1174)">
<g id="Group">
<path id="Vector" d="M7.99992 0C3.58876 0 0 3.58869 0 7.99977C0 12.4112 3.58876 16 7.99992 16C12.411 16 15.9997 12.4111 15.9997 7.99977C15.9997 3.58869 12.411 0 7.99992 0ZM7.99992 14.8532C4.2211 14.8532 1.14679 11.7787 1.14679 7.99977C1.14679 4.22102 4.2211 1.14679 7.99992 1.14679C11.7787 1.14679 14.8529 4.22102 14.8529 7.99977C14.8529 11.7787 11.7787 14.8532 7.99992 14.8532Z" fill="#9BA0A4"/>
<path id="Vector_2" d="M12.1133 7.86256H8.35382V3.75308C8.35382 3.43642 8.09717 3.17969 7.78043 3.17969C7.46376 3.17969 7.20703 3.43642 7.20703 3.75308V8.43596C7.20703 8.75262 7.46376 9.00935 7.78043 9.00935H12.1133C12.43 9.00935 12.6867 8.75262 12.6867 8.43596C12.6867 8.11929 12.43 7.86256 12.1133 7.86256Z" fill="#9BA0A4"/>
</g>
</g>
<defs>
<clipPath id="clip0_457_1174">
<rect width="16" height="16" fill="white"/>
</clipPath>
</defs>
</svg>
