<svg width="16" height="16" viewBox="0 0 16 16" fill="none" xmlns="http://www.w3.org/2000/svg">
<g id="Cancel">
<g id="Group">
<g id="Group_2">
<path id="Vector" d="M9.02053 8.00556L14.6455 2.38063C14.9273 2.09874 14.9273 1.64172 14.6455 1.35986C14.3636 1.07796 13.9065 1.07796 13.6247 1.35986L7.9997 6.98479L2.37477 1.35986C2.09288 1.07796 1.63586 1.07796 1.354 1.35986C1.07213 1.64175 1.07211 2.09877 1.354 2.38063L6.97893 8.00556L1.354 13.6305C1.07211 13.9124 1.07211 14.3694 1.354 14.6513C1.63589 14.9332 2.09291 14.9331 2.37477 14.6513L7.9997 9.02634L13.6246 14.6513C13.9065 14.9332 14.3635 14.9331 14.6454 14.6513C14.9273 14.3694 14.9273 13.9124 14.6454 13.6305L9.02053 8.00556Z" fill="#9BA0A4"/>
</g>
</g>
</g>
</svg>
