<svg width="24" height="24" viewBox="0 0 24 24" fill="none" xmlns="http://www.w3.org/2000/svg">
<g clip-path="url(#clip0_1078_631)">
<path d="M20.4853 3.51469C18.2188 1.24823 15.2053 0 12 0C8.79469 0 5.78123 1.24823 3.51473 3.51469C1.24823 5.78123 0 8.79469 0 12C0 15.2053 1.24823 18.2188 3.51473 20.4853C5.78123 22.7518 8.79469 24 12 24C14.4194 24 16.7515 23.283 18.7443 21.9267C19.1723 21.6354 19.2831 21.0523 18.9918 20.6242C18.7005 20.1962 18.1173 20.0853 17.6893 20.3768C16.0088 21.5205 14.0415 22.125 12 22.125C6.41705 22.125 1.875 17.583 1.875 12C1.875 6.41705 6.41705 1.875 12 1.875C17.583 1.875 22.125 6.41705 22.125 12C22.125 13.8637 21.6147 15.6849 20.6492 17.2667C20.3795 17.7087 20.5191 18.2856 20.961 18.5554C21.4029 18.8252 21.9799 18.6855 22.2497 18.2436C23.3948 16.3675 24 14.2085 24 12C24 8.79469 22.7518 5.78123 20.4853 3.51469Z" fill="black"/>
<path d="M15.8615 8.14179C15.4954 7.77565 14.9018 7.77565 14.5357 8.14179L11.9997 10.6778L9.46375 8.14179C9.09761 7.77565 8.50403 7.77565 8.13793 8.14179C7.77184 8.50793 7.77179 9.10156 8.13793 9.46765L10.6739 12.0036L8.13789 14.5396C7.77175 14.9058 7.77175 15.4994 8.13789 15.8655C8.32093 16.0485 8.56084 16.14 8.80079 16.14C9.04075 16.14 9.28065 16.0485 9.4637 15.8655L11.9997 13.3295L14.5357 15.8655C14.7188 16.0485 14.9587 16.14 15.1986 16.14C15.4386 16.14 15.6785 16.0485 15.8615 15.8655C16.2277 15.4993 16.2277 14.9057 15.8615 14.5396L13.3256 12.0036L15.8616 9.46765C16.2277 9.10156 16.2277 8.50793 15.8615 8.14179Z" fill="black"/>
</g>
<defs>
<clipPath id="clip0_1078_631">
<rect width="24" height="24" fill="black"/>
</clipPath>
</defs>
</svg>
