<svg
  width="24"
  height="24"
  viewBox="0 0 24 24"
  fill="none"
  xmlns="http://www.w3.org/2000/svg"
>
  <g clip-path="url(#clip0_396_5058)">
    <path d="M15.0625 11.0625L3.20824 11.0625L6.49717 7.7895C6.86416 7.42425 6.86557 6.83067 6.50032 6.46368C6.13507 6.09665 5.54144 6.09529 5.17446 6.4605L0.27583 11.3355L0.274987 11.3364C-0.0910603 11.7016 -0.0922322 12.2971 0.274893 12.6636L0.275737 12.6645L5.17436 17.5395C5.5413 17.9047 6.13492 17.9034 6.50022 17.5363C6.86547 17.1693 6.86407 16.5757 6.49708 16.2105L3.20824 12.9375L15.0625 12.9375C15.5803 12.9375 16 12.5178 16 12C16 11.4822 15.5803 11.0625 15.0625 11.0625Z" fill="white" />
  </g>
  <defs>
    <clipPath id="clip0_396_5058">
      <rect width="24" height="24" fill="white" />
    </clipPath>
  </defs>
</svg>
