<svg width="24" height="24" viewBox="0 0 24 24" fill="none" xmlns="http://www.w3.org/2000/svg">
<g id="Pencil" clip-path="url(#clip0_457_731)">
<path id="Vector" d="M15.4937 15.2583C15.8579 14.8914 15.8557 14.2989 15.4889 13.9347C15.122 13.5705 14.5294 13.5727 14.1652 13.9396L8.54957 19.5972L4.43848 15.4737L12.5098 7.37472L17.2605 12.1254C17.6259 12.4909 18.2185 12.4909 18.5839 12.1254L18.6239 12.0855L22.9616 7.81784C22.9635 7.81601 22.9653 7.81436 22.9671 7.81253C24.1588 6.62088 24.1059 5.41604 23.8517 4.61532C23.5961 3.80984 23.0297 2.9985 22.0157 1.98446C21.0015 0.970238 20.1901 0.404075 19.3848 0.14846C18.5839 -0.105691 17.3791 -0.158792 16.1864 1.03396L2.42432 14.8431C2.31079 14.9568 2.22858 15.0979 2.18555 15.2527L0.0811124 22.8131C-0.00952486 23.1392 0.0827604 23.4889 0.322812 23.7275C0.500607 23.9044 0.738828 24 0.982908 24C1.06823 24 1.15411 23.9883 1.23852 23.9643L8.73029 21.8362C8.91102 21.8027 9.08368 21.7161 9.22303 21.5758L15.4937 15.2583ZM18.8185 1.93246C19.4725 2.1401 20.2009 2.81704 20.692 3.30795C21.1831 3.79904 21.8599 4.52743 22.0675 5.18167C22.1779 5.52939 22.2032 5.92819 21.6458 6.48648L20.4194 7.69314L16.2991 3.5729L17.5113 2.35653C18.0707 1.79678 18.4702 1.82205 18.8185 1.93246ZM14.9777 4.89859L19.0849 9.00601L17.9271 10.1451L13.8312 6.04904L14.9777 4.89859ZM4.12518 21.1985L2.83447 19.9015L3.57111 17.2551L6.75733 20.4508L4.12518 21.1985ZM24.0017 23.0224C24.0017 23.5393 23.5827 23.9582 23.0658 23.9582H11.6942C11.1773 23.9582 10.7582 23.5393 10.7582 23.0224C10.7582 22.5055 11.1773 22.0863 11.6942 22.0863H23.0658C23.5825 22.0863 24.0017 22.5055 24.0017 23.0224Z" fill="#BCBCBC"/>
</g>
<defs>
<clipPath id="clip0_457_731">
<rect width="24" height="24" fill="white"/>
</clipPath>
</defs>
</svg>
